<?xml version="1.0" encoding="UTF-8" standalone="no"?>
<svg
   xmlns:dc="http://purl.org/dc/elements/1.1/"
   xmlns:cc="http://creativecommons.org/ns#"
   xmlns:rdf="http://www.w3.org/1999/02/22-rdf-syntax-ns#"
   xmlns:svg="http://www.w3.org/2000/svg"
   xmlns="http://www.w3.org/2000/svg"
   xmlns:sodipodi="http://sodipodi.sourceforge.net/DTD/sodipodi-0.dtd"
   xmlns:inkscape="http://www.inkscape.org/namespaces/inkscape"
   width="100mm"
   height="100mm"
   viewBox="0 0 100 100"
   version="1.1"
   id="svg8"
   inkscape:version="0.92.4 (5da689c313, 2019-01-14)"
   sodipodi:docname="icon1.svg">
  <defs
     id="defs2" />
  <sodipodi:namedview
     id="base"
     pagecolor="#ffffff"
     bordercolor="#666666"
     borderopacity="1.0"
     inkscape:pageopacity="0.0"
     inkscape:pageshadow="2"
     inkscape:zoom="1.979899"
     inkscape:cx="231.85069"
     inkscape:cy="59.428551"
     inkscape:document-units="mm"
     inkscape:current-layer="layer1"
     showgrid="false"
     fit-margin-top="0"
     fit-margin-left="0"
     fit-margin-right="0"
     fit-margin-bottom="0"
     inkscape:window-width="3840"
     inkscape:window-height="2035"
     inkscape:window-x="-13"
     inkscape:window-y="-13"
     inkscape:window-maximized="1" />
  <metadata
     id="metadata5">
    <rdf:RDF>
      <cc:Work
         rdf:about="">
        <dc:format>image/svg+xml</dc:format>
        <dc:type
           rdf:resource="http://purl.org/dc/dcmitype/StillImage" />
        <dc:title></dc:title>
      </cc:Work>
    </rdf:RDF>
  </metadata>
  <g>
    <rect width="100" height="100" rx="15" ry="15" style="fill: #353839;"></rect>
  </g>
  <g
     inkscape:label="Layer 1"
     inkscape:groupmode="layer"
     id="layer1"
     transform="translate(-55,-40) scale(1)">
    <g
      style="fill: white;"
      aria-label="Rapido">
      <path
         d="m 71.075516,94.661738 c 0.451978,-0.0565 0.734464,-0.225988 1.186442,-0.677966 -0.564973,0.225989 -0.903956,0.282486 -1.186442,0.677966 z m 23.389853,7.457632 c 0.282486,-0.22599 0.169492,-0.45197 0.169492,-0.67796 -0.169492,0.22599 -0.508475,0.33898 -0.169492,0.67796 z M 72.092466,97.373606 c -0.0565,0.112994 0.0565,0.225988 0.169492,0.169491 0.451978,-0.112994 0.0565,-0.903955 -0.169492,-0.169491 z m -1.073447,3.276834 c 0,-0.0565 -0.169492,-0.11299 -0.169492,-0.11299 -0.112995,0.16949 -0.225989,0.33898 -0.112995,0.50848 0.282487,-0.0565 0.395481,-0.1695 0.282487,-0.39549 z m -0.62147,1.12995 c -0.112994,-0.0565 -0.112994,0.11299 -0.169492,0.22599 0,0.0565 0.0565,0.11299 0.112995,0.22599 0.0565,-0.113 0.169492,-0.16949 0.169492,-0.28249 0,-0.0565 -0.0565,-0.16949 -0.112995,-0.16949 z M 98.081192,72.288835 c -0.112994,-1.01695 -0.734464,-1.864408 -1.355934,-2.598872 -0.847458,-1.016951 -1.920905,-1.807912 -3.163844,-2.033901 -1.412431,-0.225989 -2.881359,-0.112994 -4.29379,0.169492 -1.694917,0.395481 -3.389834,0.903956 -5.028253,1.525425 -0.0565,-1.073447 -0.0565,-1.073447 -0.677967,-1.864408 -0.395481,-0.508475 -0.960453,-0.960453 -1.525425,-0.677967 -0.564973,0.282486 -0.338984,0.960453 -0.225989,1.468928 0.282486,1.242939 -0.282487,2.542375 -1.355934,3.163845 -0.903956,0.451978 -1.63842,1.129944 -2.429381,1.694917 -1.751414,1.299436 -3.276839,2.711867 -4.858762,4.124297 -2.090397,1.807912 -3.954806,3.785315 -5.593225,5.988707 -1.186442,1.468928 -2.316387,3.05085 -2.937856,4.858762 -0.225989,0.677966 -0.225989,1.242939 0.282486,1.581922 0.734464,0.508475 1.073447,0.508475 1.638419,-0.225989 0.734464,-0.847458 1.355934,-1.694917 1.751415,-2.881358 0.39548,-1.299437 1.581922,-2.372884 2.485878,-3.446332 0.677966,-0.790961 1.468928,-1.468928 2.090397,-2.259889 0.677967,-0.903955 1.581923,-1.581922 2.429381,-2.372883 1.01695,-0.960453 2.203392,-1.807912 3.276839,-2.768365 0.338984,-0.282486 0.790962,-0.508475 0.960453,-0.960453 0.395481,-0.169491 0.734464,-0.39548 1.129945,-0.621469 0,0.225989 -0.0565,0.39548 -0.0565,0.564972 -0.225989,1.186442 -0.847459,2.259889 -1.01695,3.446331 -0.338984,0.564972 -0.451978,1.129945 -0.564973,1.751414 -0.0565,0.0565 -0.0565,0.112995 -0.112994,0.169492 -0.0565,0.0565 -0.0565,0.169492 -0.0565,0.225989 -0.338984,0.960453 -0.790962,1.920906 -0.960453,2.994353 -0.734464,1.01695 -1.073448,2.259889 -1.468928,3.446331 -0.282486,0.847459 -0.169492,1.864409 -0.734464,2.65537 -0.734464,0.0565 -0.395481,0.790961 -0.790962,1.129945 -0.282486,-0.395481 -0.734463,-0.62147 -1.186441,-0.451978 -0.395481,0.112994 -0.395481,0.621469 -0.395481,1.01695 -0.0565,0.790961 -0.282486,1.581922 -0.451978,2.372884 -0.112994,0.621469 -0.225989,1.41243 -1.073447,1.638419 -0.903956,0.282486 -1.751414,0.790962 -2.65537,1.01695 -0.0565,-0.338983 0.395481,-0.39548 0.508475,-0.790961 -0.508475,0.112995 -1.073447,0.112995 -0.677967,0.790961 -0.112994,0 -0.169491,0.0565 -0.169491,0.169492 -0.677967,-0.508475 -1.186442,-0.282486 -1.864409,0.395481 0.564972,-0.112995 0.960453,-0.169492 1.355934,-0.225989 -0.451978,0.282486 -0.903956,0.564972 -1.412431,0.621469 -0.112995,0.338984 -0.508475,0 -0.677967,0.338984 -0.112994,0.112994 -0.282486,0.112994 -0.451978,0 0,-0.225989 0.338984,-0.112995 0.338984,-0.338984 0.112994,-0.112994 0.338983,-0.169491 0.451977,-0.282486 -0.225989,0.0565 -0.39548,0.112995 -0.621469,0.169492 -0.338984,0.112994 -0.677967,0.282486 -0.960453,0.395481 -0.225989,0.0565 -0.508475,0.112994 -0.677967,0.225988 -0.282486,0.169492 0.112995,0.169492 0.112995,0.282487 0.112994,-0.0565 0.338983,0.0565 0.451977,-0.112995 0,-0.0565 0.0565,-0.112994 0.112995,-0.225989 0.169492,0.112995 0.338983,-0.112994 0.508475,0.0565 0,0.0565 -0.0565,0.112995 -0.0565,0.112995 0.282486,0 0.621469,0.112994 0.847458,-0.169492 2.203392,-0.338983 4.29379,-1.299436 6.384187,-2.203392 0,0.395481 -0.282486,2.372884 -0.169491,2.542376 -0.0565,0.0565 -0.112995,0.112994 -0.112995,0.169491 -0.338983,0 -0.564972,0.112995 -0.734464,0.338984 0,0.0565 0.0565,0.169491 0.112995,0.225989 0.225989,0.112994 0.282486,-0.169492 0.39548,-0.225989 0.225989,0.508475 -0.564972,0.734464 -0.282486,1.299436 -0.225989,0.112994 -0.225989,0.395475 -0.282486,0.564965 -0.790961,1.69492 -1.299436,3.22035 -1.920906,4.74577 -0.395481,1.07345 -0.677967,2.59887 -1.299436,3.33334 -0.169492,-0.67797 0.225989,-1.18644 0.451978,-1.75142 -0.225989,-0.22598 -0.282487,-0.22598 -0.338984,-0.0565 -0.621469,1.63842 -1.129944,3.27684 -1.242939,5.02825 0.169492,0.0565 0.225989,0 0.338984,-0.22599 0.39548,-0.67797 0.169491,-1.46893 0.39548,-2.20339 0.734464,0.67797 0.282486,-0.22599 0.508475,-0.33898 0.790961,-1.18645 1.186442,-2.65537 1.920906,-3.84182 0.62147,-0.90395 0.451978,-2.14689 1.355934,-2.93785 0,0 0,-0.0565 0,-0.113 -0.338984,-0.39548 0.0565,-0.50847 0.282486,-0.67796 0.338983,-0.22599 0.734464,-0.45198 0.790961,-0.90396 0,-0.16949 0.169492,-0.16949 0.338983,-0.16949 0.282487,1.92091 1.129945,3.61582 2.090398,5.31074 1.807911,3.38983 5.988706,5.87571 9.943512,4.97176 0.790962,-0.22599 1.63842,-0.28249 2.316387,-0.67797 1.63842,-0.96045 3.163845,-2.1469 4.406784,-3.72882 0.338983,-0.62147 1.01695,-1.01695 1.299436,-1.69492 0.169492,-0.11299 0.282486,-0.22598 0.282486,-0.45197 0.225989,-0.28249 0.451978,-0.50848 0.508475,-0.84746 0.169492,-0.22599 0.282487,-0.50848 0.451978,-0.79096 -0.112994,0.0565 -0.225989,0.11299 -0.338983,0 -0.169492,-0.45198 0,-0.79096 0.338983,-1.12995 0.0565,-0.45198 0.169492,-0.90395 -0.169491,-1.299431 0,0.338981 0.0565,0.734461 -0.282487,1.016951 -0.112994,-0.45198 0.112995,-0.79096 0.338984,-1.129945 0.282486,-2.372884 0.112994,-4.68927 -1.299437,-7.005657 0.0565,1.129945 0.112995,2.090398 0.169492,2.994354 0.112995,2.203392 -0.0565,4.350288 -1.412431,6.327688 -0.451977,0.62147 -1.01695,1.24294 -1.41243,1.9774 -0.395481,0.16949 -0.677967,0.50848 -0.960453,0.84746 -1.694917,1.86441 -3.841812,2.99435 -6.32769,3.55933 -1.412431,0.33898 -2.937856,0.33898 -4.067801,-0.62147 -1.525425,-1.29944 -2.542375,-3.05085 -3.163845,-4.97176 -0.564972,-1.58192 -0.960453,-3.220339 -1.073447,-4.915256 -0.112994,-1.016951 0.112994,-2.033901 0.112994,-2.994354 0,0.112995 -0.0565,0.282487 0.169492,0.338984 0.169492,0 0.338984,-0.0565 0.282486,-0.225989 0,-0.225989 0.282486,-0.395481 0.169492,-0.62147 0.112994,-0.282486 0.451978,-0.338983 0.677967,-0.508475 2.203392,-1.355933 4.68927,-2.259889 6.892662,-3.785314 2.090397,-1.412431 4.237292,-2.824862 6.214695,-4.406784 -0.112994,-0.225989 -0.338983,0 -0.39548,-0.225989 0.225989,-0.225989 0.847458,0 0.790961,-0.169492 -0.169492,-0.39548 0,-0.338983 0.282486,-0.39548 0.112995,0.169491 0.225989,0 0.338983,0 0.112995,-0.0565 -0.112994,-0.282487 0.0565,-0.338984 1.186442,-0.225989 1.694917,-1.299436 2.485878,-1.977403 1.073447,-1.01695 2.090397,-2.146895 2.881359,-3.389834 0.112994,-0.225989 0.169491,-0.451978 0.225988,-0.621469 0.338984,-0.338984 0.677967,-1.073448 1.016951,-1.694917 0.734464,-1.412431 1.242939,-2.937856 1.073447,-4.576276 z m -4.576276,30.903985 c 0,-0.28249 0.169492,-0.45198 0.282486,-0.62147 0.0565,0.113 0.0565,0.22599 0.0565,0.28249 -0.0565,0.16949 -0.169492,0.28248 -0.338984,0.33898 z m 0.508475,-2.0904 c -0.112994,0.28249 -0.0565,0.62147 -0.508475,0.62147 0.0565,-0.28248 0,-0.67796 0.508475,-0.62147 z m -1.186441,2.54238 c 0,0.11299 0.0565,0.22599 0.0565,0.28248 -0.0565,0 -0.112995,0 -0.169492,0 0,-0.11299 0.0565,-0.16949 0.112995,-0.28248 z M 79.889084,81.328392 c 0.282486,0.225989 0.0565,0.395481 -0.0565,0.508475 -0.112995,0.112995 -0.112995,-0.0565 -0.112995,-0.112994 0.0565,-0.112995 0.112995,-0.282486 0.169492,-0.395481 z m -0.451978,2.203392 c 0,0.0565 0,0.0565 -0.0565,0.112995 0,0 0,-0.112995 0.0565,-0.112995 z m -2.937856,5.367237 c 0.112994,-0.0565 0.169492,0.0565 0.169492,0.169492 -0.0565,0 -0.112995,0.0565 -0.169492,0.112994 0,-0.0565 -0.0565,-0.112994 -0.0565,-0.169492 0,-0.0565 0.0565,-0.112994 0.0565,-0.112994 z m -0.564972,2.316386 c 0.451977,-0.508475 0.734464,-0.960453 0.790961,-1.468928 0,-0.112994 0.338983,-1.129944 0.960453,-1.129944 -0.112995,0.338983 -0.282486,0.734464 -0.395481,1.073447 -0.451978,0.0565 -0.0565,0.338984 -0.225989,0.508475 -0.112994,0.225989 -0.451978,0.508475 0.112995,0.677967 0.225989,0.0565 -0.0565,0.169492 -0.0565,0.225989 -0.338983,0.169492 -0.677966,0 -1.186441,0.112994 z m 12.146904,-6.949159 c -0.564972,0.282486 -1.129944,0.790961 -1.468928,1.299436 -0.451978,0.677967 -1.242939,1.129945 -1.468928,1.977403 -0.677967,-0.225988 -1.01695,0.790962 -1.694917,0.508476 -0.112994,-0.0565 -0.282486,-0.112995 -0.282486,-0.0565 0,0.790961 -1.073447,0.508475 -1.186442,1.186442 -0.112994,0.338983 -0.734464,0.564972 -1.01695,0.62147 -0.790961,0.225989 -1.186442,1.129944 -2.090397,1.073447 0,0.282486 -0.225989,0.338983 -0.395481,0.564972 -0.395481,0.395481 -0.960453,0.169492 -1.299436,0.508475 0,0 0,0 0,0.0565 0,-0.0565 0,-0.0565 0,-0.0565 -0.282486,-0.112994 -0.338984,-0.338983 -0.0565,-0.564972 0.564973,-0.338983 1.129945,-0.677967 1.694917,-1.01695 0.790962,-0.564972 1.694917,-0.903956 2.372884,-1.581923 1.694917,-0.677966 2.937856,-1.920905 4.406784,-2.937855 0.564972,-0.395481 1.01695,-0.734464 1.525425,-1.129945 0.338984,-0.282486 0.62147,-0.677967 1.129945,-0.847459 0.0565,0 0.112994,-0.0565 0.169492,-0.112994 -0.112995,0.169492 0.39548,0.734464 -0.338984,0.508475 z m 2.090398,-2.090397 c -0.169492,0.282486 -0.395481,0.508475 -0.62147,0.677966 -0.112994,0.282486 -0.451978,0.282486 -0.677967,0.395481 0.112995,-0.225989 0.112995,-0.451978 0.451978,-0.451978 0.225989,-0.282486 0.790962,-0.960453 1.129945,-1.073447 0.0565,0.225989 -0.0565,0.39548 -0.282486,0.451978 z m 2.372883,-2.25989 c -0.0565,-0.0565 -0.112994,-0.112994 -0.169491,-0.169491 0.169491,-0.112995 0.112994,-0.451978 0.39548,-0.338984 0.112995,0.0565 0.282486,0.338984 0.282486,0.451978 -0.0565,0.169492 -0.338983,0.0565 -0.508475,0.0565 z m 3.67232,-7.457634 c -0.564972,2.598872 -2.0339,4.68927 -3.841811,6.553679 -1.242939,1.242939 -2.429381,2.598872 -3.728817,3.785314 -2.316387,2.203392 -4.91526,4.124298 -7.627127,5.819215 -1.129944,0.677967 -2.203392,1.412431 -3.333336,2.090397 -0.169492,-0.282486 0,-0.621469 -0.225989,-0.847458 0.790961,-0.508475 0.903956,-1.355934 1.242939,-2.146895 0.677967,-1.581922 1.412431,-3.163845 1.977403,-4.802264 0.847458,-2.146895 1.581922,-4.350287 2.259889,-6.553679 0.395481,-1.299437 0.677967,-2.65537 0.960453,-3.954806 0,-0.282487 0.112995,-0.395481 0.338984,-0.508475 0.0565,-0.169492 0.169491,-0.282487 0.282486,-0.338984 1.073447,-0.508475 2.090397,-1.242939 3.333336,-1.355933 0.62147,0 1.129945,-0.451978 1.751414,-0.62147 0.282487,-0.0565 0.564973,-0.169492 0.847459,-0.225989 1.242939,-0.112994 2.485878,-0.169491 3.728817,0 2.203392,0.169492 2.372884,1.299436 2.0339,3.107348 z M 69.437096,104.77474 c 0.225989,-0.67796 0.508475,-0.96045 0.508475,-1.41243 0.225989,-0.16949 0.225989,-0.39548 0.0565,-0.67796 -0.225988,0.22598 -0.225988,0.45197 -0.225988,0.67796 -0.508476,0.50848 -0.508476,1.12995 -0.677967,1.75142 0.282486,0 0.225989,-0.22599 0.338983,-0.33899 z"
         style="stroke-width:1.41243076"
         id="path3721"
         inkscape:connector-curvature="0" />
      <path
         d="m 93.985142,94.718236 c 1.129945,0.282486 2.090398,0 2.937856,-0.790962 0.847459,-0.790961 1.525426,-1.638419 2.25989,-2.542375 -0.0565,0.225989 0.169491,0.338983 0.225988,0.451978 0.564973,1.01695 1.977404,1.412431 3.050854,0.903956 0.11299,-0.112995 0.33898,-0.169492 0.39548,-0.338984 0.33898,-0.847458 1.18644,-1.242939 1.63842,-2.0339 0.56497,-0.960453 1.58192,-1.63842 2.0339,-2.65537 0.0565,-0.0565 0.0565,-0.0565 0.0565,-0.112994 -0.39548,-0.169492 -2.65537,1.41243 -3.27683,2.0339 -0.50848,0.395481 -1.01695,0.790961 -1.52543,1.186442 -0.22599,0.169491 -0.45198,0.282486 -0.67797,0.39548 -0.28248,0.0565 -0.45197,0.0565 -0.33898,-0.39548 0.39548,-1.525425 1.35593,-2.824862 2.0904,-4.180795 0.33898,-0.677967 0.0565,-1.073448 -0.28249,-1.355934 -0.50847,-0.39548 -1.01695,-0.225989 -1.24294,0.395481 -0.22599,0.451978 -0.45198,0.847458 -0.67796,1.242939 -0.1695,0.338983 -0.39549,0.508475 -0.734468,0.112994 -0.508476,-0.677966 -1.299437,-0.621469 -1.920906,-0.39548 -1.129945,0.508475 -2.090398,1.242939 -2.824862,2.203392 -0.847458,1.129944 -2.203392,2.485878 -2.485878,3.389834 -0.282486,0.903955 0.395481,1.807911 0.451978,1.694916 0.225989,0.225989 0.451978,0.451978 0.677967,0.677967 0.0565,0.0565 0.112994,0.112995 0.169491,0.112995 z m 2.485878,-4.406784 c 0.734464,-0.847459 1.355934,-1.751414 2.25989,-2.372884 0.282486,-0.169492 0.564972,-0.451978 0.790961,-0.282486 0.338983,0.282486 0.112994,0.564972 -0.0565,0.960453 -0.903956,1.751414 -2.316387,3.05085 -3.728818,4.350287 -0.338983,0.338983 -0.790961,0.338983 -1.355933,0.508475 0.451978,-1.299437 1.242939,-2.316387 2.090397,-3.163845 z"
         style="stroke-width:1.41243076"
         id="path3723"
         inkscape:connector-curvature="0" />
      <path
         d="m 117.70956,87.938568 c 0,0 -0.96045,0.508475 -0.79096,0 0.22599,-0.508475 0.56498,-1.864409 0.56498,-1.864409 -0.0565,-0.338983 0,-0.508475 0.0565,-0.734464 0.45198,-1.186441 0.22599,-2.372883 -0.28248,-3.502828 -0.0565,-0.225989 -0.22599,-0.169492 -0.39548,-0.112994 -0.113,0.0565 -0.22599,0.225989 -0.33899,0.0565 -0.62147,-0.847459 -1.07344,-0.0565 -1.35593,0.225989 -0.90396,0.903956 -1.75141,1.864408 -2.54238,2.881359 -1.29943,1.638419 -2.59887,3.333336 -3.78531,5.08475 -1.12995,1.581923 -2.1469,3.220342 -3.22034,4.858762 0,-0.169492 -0.0565,-0.282486 0,-0.338983 1.29943,-2.429381 2.0339,-5.141248 3.38983,-7.570629 0.45198,-0.847459 0.84746,-1.751414 1.35593,-2.598873 0.22599,-0.338983 0.56498,-0.734464 0.28249,-1.129944 -0.39548,-0.564973 -1.58192,-0.451978 -2.0904,0.0565 -0.90395,0.903956 -1.52542,2.0339 -2.14689,3.107348 -0.62147,1.01695 -1.07345,2.090397 -1.75142,3.107347 -0.62147,1.186442 -0.73446,3.389834 -1.58192,4.237293 0,0.112994 -1.24294,3.276839 -1.24294,3.333336 0,0 0.0565,0 0.113,-0.0565 -0.67797,0.338983 -0.28249,0.960453 -0.45198,1.468928 -0.45198,0.960453 -0.73446,2.033894 -1.01695,3.050844 -0.677967,2.76837 -1.412431,5.53673 -2.033901,8.3051 -0.39548,1.63842 -0.734464,3.33333 -0.39548,5.02825 0.112994,0.11299 0.225988,0.0565 0.338983,0.0565 0.338983,-0.33899 0.564972,-0.67797 0.508475,-1.12995 -0.0565,-0.39548 -0.0565,-0.62147 0.508475,-0.56497 0.338983,0.0565 0.903958,-0.28249 0.734468,-0.90396 0,-0.16949 -0.0565,-0.45197 0.0565,-0.56497 0.62147,-0.73446 0.62147,-1.69491 0.90396,-2.54237 1.01695,-3.67232 2.76836,-7.00566 4.18079,-10.508485 0.113,-0.338984 0.33899,-0.451978 0.67797,-0.282486 0.67797,0.282486 1.29944,0.225989 1.92091,-0.112995 1.12994,-0.677967 2.14689,-1.468928 3.10734,-2.372883 1.63842,-1.581923 3.16385,-3.27684 4.2373,-5.254243 0.16949,-0.338983 0.45197,-0.621469 0.79096,-0.847458 0.0565,-0.0565 0.16949,-0.112995 0.22599,-0.112995 0,0 0.11299,-0.282486 0.16949,-0.338983 0.11299,-0.112995 0.90395,-0.847459 1.24294,-1.186442 0.39548,-0.395481 0.33898,-0.225989 0.33898,-0.338983 0.0565,-0.112995 -0.28249,0.112994 -0.28249,0.112994 z M 98.331015,114.32277 c -0.169492,-0.96045 0.0565,-1.8644 0.112994,-2.76836 0.112995,0.56497 0.169492,1.07345 -0.112994,2.76836 z m 0.282486,-2.99435 c -0.225989,-0.50847 0.225989,-0.90395 0.169492,-1.35593 0.225988,0.45198 0,0.90395 -0.169492,1.35593 z m 1.581919,-5.53673 c 0.1695,-1.07344 0.50848,-2.76836 0.84746,-3.55932 0,1.18644 -0.56497,2.54237 -0.84746,3.55932 z m 3.27684,-11.129952 c 0.16949,0.338984 -0.16949,0.508476 -0.22599,0.734464 -0.11299,-0.282486 -0.11299,-0.508475 0.22599,-0.734464 z m -1.35593,4.237293 c 0,0 0,0 0,-0.0565 0,0 0,0 0,0 -0.16949,-0.451978 0.0565,-0.790962 0.28249,-1.129945 0,-0.451978 0.0565,-0.903956 0.50847,-1.412431 -0.16949,0.62147 -0.28249,1.01695 -0.39548,1.412431 -0.0565,0 -0.11299,0 -0.11299,0 0,0 0.0565,0 0.11299,0 -0.11299,0.395481 -0.28249,0.734464 -0.39548,1.129945 0,0 0,0 0,0.0565 h 0.0565 c -0.0565,0 -0.0565,0 -0.0565,0 -0.22599,0.734464 -0.39548,1.412429 -0.62147,2.090399 0,-0.73447 0,-1.46893 0.62147,-2.090399 z m 0,5.706219 c -0.113,0.16949 0.11299,0.50848 -0.28249,0.45198 -0.0565,0 -0.22599,-0.113 -0.16949,-0.113 0.45198,0 -0.11299,-0.56497 0.39548,-0.50847 0.16949,0.0565 0.16949,0.11299 0.0565,0.16949 z m 4.91526,-9.830517 c -0.33899,0.508475 -0.79096,0.847458 -1.12995,1.355933 -0.79096,1.129945 -0.84745,2.542376 -1.58192,3.67232 -0.16949,0.225994 -0.16949,0.508474 -0.45198,0.677964 0.28249,0.39548 -0.16949,0.67797 -0.28248,1.01695 -0.22599,0.79096 -0.62147,1.58193 -0.96046,2.31639 -0.11299,0.22599 -0.22598,0.45198 -0.45197,0.28249 -0.1695,-0.113 -0.28249,-0.45198 0.16949,-0.33899 -0.0565,-0.62147 0.50847,-1.01695 0.50847,-1.58192 0,-0.67797 0.50848,-1.07345 0.56498,-1.69492 0,-0.0565 0.16949,-0.0565 0.22598,-0.0565 -0.16949,-1.129949 0.50848,-2.090402 0.96046,-2.93786 0.50847,-0.847458 0.90395,-1.807911 1.52542,-2.598873 0.67797,-0.847458 1.24294,-1.807911 1.80791,-2.768364 0.39548,-0.677967 0.79097,-1.299436 1.18645,-1.920906 0.50847,0.451978 0.45197,0.790961 0.0565,1.299437 -0.84746,1.01695 -1.52542,2.146894 -2.14689,3.276839 z m 5.19774,-3.389834 c -0.16949,-0.112994 -0.0565,-0.225989 0.1695,-0.225989 0.0565,0 0.16949,0 0.22598,0.0565 -0.11299,0.112995 -0.28248,0.338984 -0.39548,0.169492 z m 2.31639,-3.163845 c -0.62147,1.355934 -1.63842,2.146895 -2.88136,2.881359 -1.24294,0.847458 -2.37288,1.920906 -3.72882,3.05085 0.73447,-1.581922 1.86441,-2.655369 2.54238,-4.0678 -0.0565,0.0565 -0.16949,0.112994 -0.22599,0.0565 -0.28249,-0.112994 -0.62147,0.395481 -0.79096,-0.0565 -0.113,-0.395481 0.39548,-0.62147 0.50847,-0.960453 0,-0.0565 0.28249,-0.0565 0.39548,0 0.1695,0.0565 0.22599,0.225989 0.1695,0.39548 0.33898,-0.960452 4.46328,-5.08475 5.59322,-6.72317 0,2.0339 -0.79096,3.728817 -1.58192,5.423734 z"
         style="stroke-width:1.41243076"
         id="path3725"
         inkscape:connector-curvature="0" />
      <path
         d="m 123.42373,79.915961 c 0.16949,0.0565 0.28249,0.0565 0.45198,-0.112994 0.56497,-0.564972 1.18644,-1.073448 1.86441,-1.412431 0.33898,-0.169492 0.62147,-0.395481 0.67796,-0.734464 0.0565,-0.621469 -0.50847,-1.242939 -0.90395,-1.186442 -0.56497,0.112995 -1.07345,0.395481 -1.29944,0.960453 -0.28248,0.677967 -0.73446,1.299436 -0.79096,2.090398 0,0.112994 -0.22599,0.282486 0,0.39548 z m 2.99435,7.796618 c -1.24293,1.186442 -2.31638,2.429381 -3.44633,3.67232 -0.96045,0.960453 -1.75141,2.090398 -3.05085,2.65537 -0.16949,-0.225989 0.113,-0.282486 0.113,-0.451978 -0.16949,-1.807911 0.73446,-3.389834 1.18644,-5.084751 0.22599,-0.960453 1.01695,-1.638419 1.35593,-2.485878 0.33899,-0.677967 0.113,-1.073447 -0.45198,-1.242939 -0.39548,-0.169492 -0.84745,-0.112994 -1.12994,0.282486 -0.79096,1.129945 -1.35593,2.316387 -1.9774,3.559326 -0.56498,1.299436 -0.90396,5.197745 -0.79096,5.084751 0.28248,0.39548 0.11299,1.073447 0.79096,1.468928 0.96045,0.621469 1.69491,0.734464 2.54237,-0.0565 0.113,-0.112994 0.28249,-0.282486 0.45198,-0.451978 0.56497,-0.564972 1.24294,-1.01695 1.63842,-1.807911 0.45198,-0.847458 0.96045,-1.694917 1.63842,-2.485878 0.11299,-0.0565 0.16949,-0.112995 0.22599,-0.169492 0.0565,0.0565 0.56497,-0.564972 0.90395,-1.525425 0.39548,-0.960453 0.0565,-1.01695 0,-0.960453 z"
         style="stroke-width:1.41243076"
         id="path3727"
         inkscape:connector-curvature="0" />
      <path
         d="m 135.81252,90.311452 c -0.0565,-0.112995 -0.79097,0.282486 -1.29944,0.282486 -0.50848,0.0565 -0.39548,-0.112995 -0.50848,-0.282486 -0.16949,-0.282486 -0.45197,-0.451978 -0.62147,-0.790962 -0.39548,-0.847458 -0.22598,-1.694916 -0.16949,-2.598872 0.16949,-1.355934 0.67797,-2.65537 1.29944,-3.785315 0.62147,-1.073447 1.01695,-2.203392 1.41243,-3.333336 0.67797,-1.807912 1.35593,-3.67232 2.31639,-5.367237 0.96045,-1.694917 1.8644,-3.446331 3.16384,-4.971756 0.28249,-0.395481 0.39548,-0.903956 0.0565,-1.242939 -0.39548,-0.338984 -0.90396,-0.282487 -1.29944,0.169491 -1.75141,2.090398 -3.10735,4.406784 -4.46328,6.666673 -0.73446,1.299437 -1.41243,2.65537 -2.0339,4.011304 -0.50847,1.073447 -0.96045,2.203392 -1.29944,3.389834 -0.33898,1.073447 -0.79096,2.203392 -0.84745,3.389834 0,0.112994 -0.1695,0.282486 -0.33899,0.282486 -0.16949,0 -0.11299,-0.169492 -0.16949,-0.282486 -0.16949,-0.677967 -1.12994,-1.129945 -1.75141,-0.903956 -0.79096,0.282486 -1.58193,0.677967 -2.1469,1.355933 -1.46893,1.751415 -2.76836,3.615823 -3.67232,5.649723 -0.33898,0.62147 -0.50847,1.468928 -0.16949,2.146895 0.50848,1.073448 2.14689,1.412431 3.22034,0.677967 1.12995,-0.790961 1.92091,-1.920906 2.76837,-2.937856 0.90395,-1.01695 1.58192,-2.146895 2.37288,-3.389834 0.0565,0.282486 0,0.395481 0.0565,0.451978 0.62147,0.847458 1.52542,2.203392 2.20339,2.259889 0.67797,0.0565 1.9774,-0.677967 1.92091,-0.847458 z M 134.1176,79.576978 c 0.22599,0.282486 0.11299,0.451978 -0.113,0.621469 -0.16949,-0.338983 0.22599,-0.338983 0.113,-0.621469 z m -9.49154,14.180805 c 0.28249,-1.468928 0.96046,-2.711867 1.86441,-3.67232 0.56497,-0.62147 1.41243,-1.129945 2.20339,-1.525425 0.79097,-0.451978 1.35594,-1.073448 1.86441,-1.807912 0.113,-0.112994 0.16949,-0.282486 0.67797,-0.282486 -1.9774,2.711867 -3.67232,5.480231 -6.61018,7.288143 z m 6.1017,-5.254243 c 0,-0.39548 0.28249,-0.451977 0.50848,-0.564972 -0.0565,0.282486 -0.22599,0.451978 -0.50848,0.564972 z"
         style="stroke-width:1.41243076"
         id="path3729"
         inkscape:connector-curvature="0" />
      <path
         d="m 144.21825,89.463993 c -0.28249,0.112995 -1.35594,0.225989 -1.52543,0.169492 -0.33898,-0.112995 -0.0565,-0.282486 0,-0.451978 0.28249,-1.412431 0.22599,-2.824861 -0.11299,-4.293789 -0.1695,-0.62147 -0.50848,-0.903956 -1.01695,-1.186442 -0.67797,-0.508475 -1.41243,-0.395481 -2.0904,-0.225989 l -0.56497,0.847458 c -0.113,0.338984 -0.113,0.677967 -0.28249,0.790962 -0.90396,0.39548 -1.46893,1.186441 -2.14689,1.807911 -1.75142,1.63842 -2.31639,3.67232 -2.25989,5.932209 0.0565,1.920906 1.69491,3.220342 3.61582,2.711867 1.63842,-0.451978 2.65537,-1.694917 3.44633,-3.107348 0.33898,-0.677966 0.67797,-1.299436 1.18644,-1.864408 0.0565,0.112994 1.80791,-0.847459 2.0339,-1.01695 0.67797,-0.451978 0.62147,-0.734464 0.62147,-0.734464 0,0 -0.62147,0.451978 -0.90395,0.621469 z m -3.44633,-4.68927 c 0.0565,-0.112994 0,-0.282486 0.22598,-0.282486 0.22599,0 0.45198,0.112994 0.39548,0.338983 0,0.338984 0.33899,0.677967 0.113,1.073448 -0.16949,-0.282486 -0.33898,-0.677967 -0.56497,-0.734464 -0.28249,-0.0565 -0.22599,-0.169492 -0.16949,-0.395481 z m -0.0565,1.525425 c -0.16949,0.62147 -0.45198,1.129945 -1.18644,1.694917 0.45197,-0.734464 0,-1.751414 1.18644,-1.694917 z m -3.78532,7.740121 c -0.73446,0.225989 -1.07344,-0.0565 -1.12994,-0.847459 0,-1.751414 0.90395,-3.163844 1.9209,-4.519778 0.1695,-0.282486 0.33899,-0.677967 0.79097,-0.734464 -0.0565,1.468928 1.07344,2.0339 2.09039,2.768364 -0.84746,1.468928 -1.9209,2.711867 -3.67232,3.333337 z m 4.51978,-5.084751 c -0.11299,0.282486 -0.0565,0.677967 -0.45198,0.677967 -0.39548,-0.0565 -0.67796,-0.338983 -0.90395,-0.62147 -0.22599,-0.282486 -0.16949,-0.564972 0.11299,-0.790961 0.50848,-0.508475 1.01695,-1.01695 1.35594,-1.864408 0.11299,0.960453 0.11299,1.807911 -0.113,2.598872 z"
         style="stroke-width:1.41243076"
         id="path3731"
         inkscape:connector-curvature="0" />
    </g>
  </g>
</svg>
